<?xml version="1.0" standalone="no"?>
<!DOCTYPE svg PUBLIC "-//W3C//DTD SVG 20010904//EN"
 "http://www.w3.org/TR/2001/REC-SVG-20010904/DTD/svg10.dtd">
<svg version="1.0" xmlns="http://www.w3.org/2000/svg"
 width="1330.000000pt" height="1328.000000pt" viewBox="0 0 1330.000000 1328.000000"
 preserveAspectRatio="xMidYMid meet">

<g transform="translate(0.000000,1328.000000) scale(0.100000,-0.100000)"
fill="#000000" stroke="none">
<path d="M11785 13104 c-173 -39 -335 -125 -462 -247 -104 -100 -160 -176
-218 -299 -269 -567 71 -1241 690 -1369 487 -101 977 189 1128 667 90 286 38
611 -138 859 -52 74 -180 197 -258 248 -76 51 -185 101 -278 128 -100 29 -359
36 -464 13z m440 -51 c270 -76 485 -252 608 -498 146 -292 116 -665 -74 -940
-259 -375 -753 -509 -1165 -316 -424 199 -637 681 -497 1126 99 314 358 558
669 629 38 8 78 18 89 20 51 12 302 -2 370 -21z"/>
<path d="M11403 12754 c-4 -10 1 -53 9 -96 16 -75 51 -154 158 -356 27 -51 54
-119 61 -150 16 -80 5 -172 -29 -246 -28 -60 -52 -91 -179 -236 -35 -39 -63
-75 -63 -82 0 -19 87 -2 153 30 88 44 145 104 240 256 96 154 161 222 254 268
120 59 273 49 509 -33 97 -34 94 -33 94 -16 0 28 -119 128 -192 161 -115 53
-196 67 -376 65 -277 -2 -339 33 -506 285 -106 160 -122 178 -133 150z"/>
<path d="M11861 12604 c-36 -26 -54 -79 -41 -120 25 -76 112 -99 172 -45 28
25 33 36 33 76 0 40 -5 51 -33 76 -38 34 -93 39 -131 13z"/>
<path d="M11720 11690 c0 -5 11 -10 25 -10 24 0 25 -3 25 -55 0 -30 5 -55 10
-55 6 0 10 25 10 55 0 52 1 55 25 55 14 0 25 5 25 10 0 6 -27 10 -60 10 -33 0
-60 -4 -60 -10z"/>
<path d="M11872 11684 c-28 -19 -30 -74 -4 -97 25 -22 75 -21 95 1 25 27 22
78 -5 96 -12 9 -32 16 -43 16 -11 0 -31 -7 -43 -16z m69 -14 c37 -20 18 -80
-26 -80 -43 0 -63 58 -27 79 22 13 29 13 53 1z"/>
<path d="M12010 11635 c0 -37 4 -65 10 -65 6 0 10 11 10 25 0 16 6 25 15 25 9
0 21 -11 27 -25 6 -14 17 -25 25 -25 11 0 11 5 -1 28 -8 15 -12 40 -9 56 7 32
-8 46 -49 46 -28 0 -28 -1 -28 -65z m55 25 c0 -22 -29 -18 -33 3 -3 14 1 18
15 15 10 -2 18 -10 18 -18z"/>
<path d="M12130 11635 c0 -37 4 -65 10 -65 6 0 10 21 10 48 l0 47 41 -47 c22
-27 45 -48 50 -48 5 0 9 29 9 65 0 37 -4 65 -10 65 -5 0 -10 -21 -10 -47 l0
-48 -41 48 c-22 26 -45 47 -50 47 -5 0 -9 -29 -9 -65z"/>
<path d="M12280 11635 l0 -65 40 0 c22 0 40 5 40 10 0 6 -14 10 -31 10 -42 0
-37 33 6 39 l30 4 -30 6 c-38 8 -40 35 -2 39 42 5 32 22 -13 22 l-40 0 0 -65z"/>
<path d="M12390 11647 c0 -58 12 -77 48 -77 48 0 62 16 62 75 0 30 -4 55 -10
55 -5 0 -10 -19 -10 -42 0 -54 -11 -71 -41 -66 -21 3 -24 9 -27 56 -4 68 -22
68 -22 -1z"/>
<path d="M12543 11694 c-25 -11 -14 -53 17 -69 35 -18 30 -39 -7 -32 -15 3
-22 0 -20 -7 6 -18 59 -13 71 7 9 16 6 23 -21 46 -40 33 -42 45 -8 38 16 -3
24 0 22 7 -4 12 -35 18 -54 10z"/>
<path d="M9376 11051 l-1198 -166 6 -56 5 -56 -127 -16 -127 -16 -32 34 -32
33 -3 -26 c-2 -20 -10 -28 -27 -30 -13 -2 -28 1 -33 6 -16 16 1 51 28 58 14 4
22 10 17 15 -6 6 -604 -68 -689 -86 -20 -4 -21 -9 -14 -42 5 -21 8 -39 6 -40
-2 -2 -35 11 -75 29 l-72 31 -597 -81 c-328 -46 -601 -82 -606 -82 -5 0 -4 -6
2 -13 9 -11 -24 -15 -176 -25 -103 -7 -230 -18 -282 -26 -52 -9 -203 -29 -335
-46 -132 -17 -546 -73 -920 -125 -1307 -181 -2362 -326 -2585 -356 -320 -42
-643 -90 -652 -95 -5 -3 -8 -597 -8 -1320 l0 -1315 72 -68 73 -69 -60 -7 c-33
-3 -66 -8 -72 -10 -10 -4 -13 -344 -13 -1660 l0 -1655 28 0 c15 1 2203 301
4862 668 l4835 667 3 559 c2 508 1 558 -14 552 -51 -20 -58 -17 -208 93 -82
61 -153 114 -158 119 -10 10 309 255 323 247 5 -4 20 -27 34 -53 l24 -47 1
2323 c0 1277 -1 2321 -2 2321 -2 -1 -542 -76 -1202 -168z m582 36 c5 -23 -15
-47 -39 -47 -23 0 -35 36 -18 56 16 20 53 14 57 -9z m-270 -19 c30 -30 -11
-85 -44 -57 -18 15 -18 34 2 53 19 19 26 20 42 4z m-251 -44 c9 -24 -10 -49
-38 -49 -27 0 -37 28 -19 50 17 20 49 19 57 -1z m-260 -40 c9 -24 -10 -49 -38
-49 -27 0 -37 28 -19 50 17 20 49 19 57 -1z m-257 -49 c0 -12 -25 -45 -35 -45
-35 0 -48 52 -18 69 21 11 53 -3 53 -24z m-271 -19 c18 -22 -3 -56 -34 -56
-19 0 -25 5 -25 23 0 41 36 61 59 33z m-255 -41 c14 -37 -33 -70 -61 -42 -12
12 -13 19 -4 36 14 24 56 28 65 6z m1563 -41 c9 -24 -10 -49 -38 -49 -27 0
-37 28 -19 50 17 20 49 19 57 -1z m-259 -51 c4 -28 -32 -50 -54 -32 -17 14
-18 31 -2 47 19 19 53 10 56 -15z m-2091 -19 c7 -18 -7 -46 -25 -52 -8 -2 -12
9 -12 32 0 38 25 51 37 20z m1817 10 c35 -13 7 -69 -31 -62 -22 4 -29 34 -13
53 14 17 21 18 44 9z m-247 -50 c9 -24 -10 -49 -38 -49 -27 0 -37 28 -19 50
17 20 49 19 57 -1z m-259 -45 c4 -21 -26 -51 -47 -47 -17 4 -26 31 -17 54 8
21 60 14 64 -7z m-265 -31 c14 -22 -7 -48 -39 -48 -18 0 -24 5 -24 23 0 44 41
61 63 25z m-264 -32 c16 -19 -3 -56 -28 -56 -29 0 -45 25 -31 49 12 24 42 27
59 7z m-259 -50 c0 -44 -51 -61 -66 -21 -9 21 14 45 42 45 19 0 24 -5 24 -24z
m1827 8 c9 -24 -10 -49 -38 -49 -27 0 -37 28 -19 50 17 20 49 19 57 -1z
m-2092 -49 c0 -27 -3 -30 -30 -30 -35 0 -45 24 -19 49 25 26 49 16 49 -19z
m1833 -1 c4 -27 -21 -47 -48 -39 -38 12 -16 69 25 63 11 -2 21 -12 23 -24z
m-2091 -20 c7 -18 -7 -46 -25 -52 -8 -2 -12 9 -12 32 0 38 25 51 37 20z m1823
1 c25 -30 -16 -79 -46 -54 -19 16 -17 46 4 58 23 14 28 13 42 -4z m-253 -41
c9 -24 -10 -49 -38 -49 -27 0 -37 28 -19 50 17 20 49 19 57 -1z m-259 -45 c4
-21 -26 -51 -47 -47 -17 4 -26 31 -17 54 8 21 60 14 64 -7z m-264 -32 c9 -15
7 -22 -12 -37 -28 -23 -52 -16 -52 14 0 44 42 59 64 23z m-265 -31 c18 -22 -3
-56 -34 -56 -14 0 -25 2 -25 4 0 2 -3 11 -6 19 -6 16 20 47 40 47 8 0 19 -6
25 -14z m-261 -52 c-4 -37 -32 -54 -54 -32 -22 22 -3 58 32 58 22 0 25 -4 22
-26z m1827 -9 c0 -25 -4 -30 -28 -33 -32 -4 -44 16 -27 48 18 33 55 23 55 -15z
m-2101 -1 c22 -8 20 -51 -2 -63 -21 -11 -52 3 -52 24 0 12 26 45 35 45 2 0 10
-3 19 -6z m1843 -20 c9 -24 -10 -49 -38 -49 -27 0 -37 28 -19 50 17 20 49 19
57 -1z m-2090 -30 c7 -18 -7 -46 -25 -52 -8 -2 -12 9 -12 32 0 38 25 51 37 20z
m1821 4 c18 -18 14 -46 -9 -58 -39 -22 -70 37 -31 59 22 13 26 13 40 -1z
m-257 -44 c17 -21 0 -49 -32 -49 -27 0 -37 28 -19 50 16 19 34 19 51 -1z
m-255 -38 c3 -8 0 -24 -6 -36 -22 -42 -73 -10 -56 36 7 18 55 18 62 0z m-256
-50 c0 -21 -35 -47 -54 -40 -21 8 -21 50 1 63 20 11 53 -3 53 -23z m-271 -20
c18 -21 -3 -56 -33 -56 -31 0 -41 28 -20 51 20 23 37 24 53 5z m-4731 -43
c-15 -54 -112 -398 -113 -401 -2 -3 -248 98 -254 104 -7 6 -50 218 -46 222 6
6 368 90 394 91 18 1 22 -3 19 -16z m4470 -15 c2 -20 -2 -28 -19 -33 -32 -10
-55 16 -39 44 16 32 54 24 58 -11z m1827 -3 c0 -27 -3 -30 -30 -30 -35 0 -45
24 -19 49 25 26 49 16 49 -19z m-2085 -31 c0 -30 -35 -51 -56 -33 -20 16 -17
35 7 53 27 19 49 10 49 -20z m1827 10 c9 -24 -10 -49 -38 -49 -27 0 -37 28
-19 50 17 20 49 19 57 -1z m-2092 -49 c0 -20 -6 -31 -17 -33 -15 -3 -18 4 -18
33 0 29 3 36 18 33 11 -2 17 -13 17 -33z m1833 -2 c4 -25 -27 -46 -52 -37 -17
7 -20 22 -10 49 10 25 58 16 62 -12z m-267 -19 c17 -21 0 -49 -32 -49 -27 0
-37 28 -19 50 16 19 34 19 51 -1z m-256 -44 c4 -12 1 -28 -6 -36 -16 -20 -53
-14 -57 9 -8 41 51 66 63 27z m-257 -41 c4 -21 -26 -51 -47 -47 -17 4 -26 31
-17 54 8 21 60 14 64 -7z m-269 -26 c13 -25 -4 -53 -33 -53 -30 0 -39 22 -20
49 18 25 40 27 53 4z m-261 -52 c4 -25 -11 -41 -39 -41 -22 0 -32 27 -18 51
15 28 53 21 57 -10z m1816 23 c22 -8 20 -51 -2 -63 -21 -11 -52 3 -52 24 0 12
26 45 35 45 2 0 10 -3 19 -6z m-2074 -58 c0 -28 -24 -51 -45 -42 -40 15 -23
66 21 66 19 0 24 -5 24 -24z m1827 8 c9 -24 -10 -49 -38 -49 -27 0 -37 28 -19
50 17 20 49 19 57 -1z m-2099 -23 c19 -12 11 -55 -10 -59 -15 -3 -18 4 -18 32
0 37 5 42 28 27z m-926 -33 c108 -50 185 -154 214 -287 26 -124 9 -245 -51
-368 -134 -272 -518 -373 -722 -188 -89 79 -133 189 -133 335 0 154 46 273
147 381 109 115 222 161 388 156 83 -2 110 -7 157 -29z m2765 16 c9 -24 -10
-49 -38 -49 -27 0 -37 28 -19 50 17 20 49 19 57 -1z m-267 -29 c24 -28 -9 -72
-45 -59 -21 8 -19 51 3 63 23 14 28 13 42 -4z m-259 -41 c17 -21 0 -49 -32
-49 -27 0 -37 28 -19 50 16 19 34 19 51 -1z m-3017 -126 c-4 -62 -7 -114 -8
-115 -1 -1 -63 -12 -137 -23 -199 -31 -179 -20 -179 -95 0 -63 1 -65 23 -61
12 3 56 10 97 16 41 6 87 13 103 16 l27 6 0 -105 0 -104 -122 -18 c-68 -9
-127 -21 -131 -25 -10 -9 -22 -130 -13 -130 7 0 243 36 289 45 27 4 27 4 27
-54 0 -32 -3 -85 -6 -117 l-6 -59 -276 -43 c-152 -23 -278 -40 -280 -37 -4 4
27 928 32 931 4 2 525 82 544 83 l23 1 -7 -112z m2760 87 c12 -31 -27 -67 -54
-50 -11 7 -14 48 -3 58 12 13 51 7 57 -8z m-264 -35 c8 -15 6 -24 -10 -40 -34
-34 -72 -1 -44 39 19 26 40 27 54 1z m-265 -55 c0 -24 -5 -31 -24 -33 -37 -6
-52 26 -25 53 25 25 49 15 49 -20z m-2955 -72 c0 -43 -7 -231 -15 -418 -8
-187 -15 -365 -15 -396 l0 -57 -42 -4 -43 -5 -201 194 -201 193 -7 -38 c-3
-20 -6 -86 -7 -147 -1 -60 -4 -144 -8 -185 l-6 -75 -118 -18 c-66 -10 -120
-17 -122 -15 -4 5 34 922 39 934 3 7 22 14 43 16 38 5 40 3 238 -188 l200
-193 6 67 c4 37 7 114 8 172 1 58 4 128 7 156 l6 51 102 15 c55 8 109 16 119
17 15 1 17 -9 17 -76z m2698 41 c4 -25 -22 -49 -43 -40 -22 8 -29 34 -14 52
17 21 53 14 57 -12z m-274 -10 c23 -9 20 -51 -4 -64 -18 -10 -20 -8 -20 30 0
43 0 43 24 34z m-3508 -179 c30 -15 65 -41 79 -59 86 -113 70 -292 -36 -398
-26 -26 -53 -48 -60 -48 -19 0 -5 -23 112 -180 61 -83 110 -152 108 -154 -6
-5 -221 -36 -244 -36 -14 0 -49 43 -125 156 l-105 156 -6 -74 c-4 -40 -7 -119
-8 -175 0 -57 -2 -103 -3 -103 -2 0 -57 -9 -123 -20 -65 -10 -120 -18 -122
-17 -4 5 32 926 37 931 3 2 77 16 165 30 189 30 255 28 331 -9z m-915 -111
c149 -43 243 -159 270 -333 53 -343 -218 -644 -556 -618 -170 13 -306 130
-344 298 -15 65 -13 207 4 273 48 184 192 333 366 380 72 20 193 20 260 0z
m-653 -183 c-1 -60 -6 -112 -9 -115 -3 -4 -48 -13 -100 -22 -51 -8 -94 -16
-95 -17 -1 -1 -7 -146 -14 -322 -6 -176 -13 -334 -16 -350 l-4 -31 -117 -17
c-64 -9 -118 -15 -121 -13 -2 3 2 158 9 345 7 188 10 343 7 347 -3 3 -35 0
-69 -5 -35 -6 -78 -14 -95 -16 l-32 -5 5 112 c3 62 7 115 10 117 4 5 583 98
621 100 24 1 24 1 20 -108z m5262 -521 c0 -17 -355 -948 -365 -959 -3 -2 -65
-14 -139 -26 l-134 -21 14 35 c46 119 262 706 260 709 -2 1 -60 -7 -129 -18
-179 -28 -167 -31 -166 38 1 31 4 82 7 112 l7 54 300 47 c357 56 345 55 345
29z m-1375 -282 c-10 -168 -25 -601 -21 -605 3 -3 224 30 289 43 l27 6 0 -60
c0 -32 -3 -86 -6 -118 l-6 -59 -280 -43 c-154 -24 -281 -42 -283 -40 -5 6 35
921 40 927 6 6 181 37 223 40 22 1 22 0 17 -91z m-633 -44 c107 -43 179 -119
221 -232 31 -84 31 -261 -1 -354 -62 -178 -206 -309 -383 -348 -87 -19 -212
-9 -281 22 -157 72 -238 230 -225 438 10 144 59 254 156 350 65 63 153 113
237 135 77 19 213 14 276 -11z m-2524 -173 l-73 -109 -69 -11 c-38 -7 -71 -10
-73 -7 -2 2 18 49 46 104 l50 100 73 12 c40 6 80 13 88 14 8 2 18 4 23 5 4 0
-26 -48 -65 -108z m1555 38 c47 -13 106 -63 123 -106 32 -75 4 -216 -47 -244
-25 -13 -18 -25 19 -32 120 -24 168 -221 87 -363 -42 -71 -130 -139 -210 -159
-16 -4 -121 -22 -232 -39 -202 -32 -203 -33 -203 -12 0 12 7 222 17 468 l17
447 65 10 c37 6 104 17 151 25 107 17 165 19 213 5z m-536 -170 c-3 -61 -7
-113 -9 -115 -2 -2 -46 -10 -97 -18 -52 -9 -95 -17 -97 -19 -2 -1 -9 -157 -17
-346 -8 -188 -18 -346 -23 -350 -11 -10 -225 -43 -232 -36 -3 2 1 158 8 345 7
187 10 343 8 346 -3 3 -48 -2 -99 -10 -51 -8 -95 -14 -96 -12 -2 2 0 54 4 117
l8 114 300 46 c165 26 311 47 324 48 l24 1 -6 -111z m-744 -56 c-2 -32 -8
-175 -13 -319 -11 -283 -20 -339 -72 -436 -119 -223 -456 -281 -593 -100 -66
86 -70 114 -56 477 7 176 13 321 14 322 5 5 237 36 241 32 2 -2 0 -92 -4 -199
-5 -107 -9 -250 -10 -318 0 -123 0 -124 29 -153 56 -56 144 -31 179 50 11 27
18 114 28 345 7 170 15 311 18 313 3 4 190 37 232 42 6 1 9 -20 7 -56z m6319
-63 c143 -44 228 -175 228 -350 0 -209 -124 -384 -313 -442 -96 -29 -220 -23
-293 15 -174 89 -233 334 -132 547 90 189 315 291 510 230z m-7140 -121 l-4
-117 -147 -22 c-80 -12 -151 -23 -157 -25 -11 -3 -24 -72 -24 -127 0 -27 2
-29 28 -24 29 6 219 36 227 36 7 0 6 -75 -1 -148 l-7 -60 -111 -17 c-161 -24
-146 -11 -147 -123 -1 -53 -4 -131 -8 -172 l-6 -74 -119 -18 c-65 -10 -120
-17 -121 -16 -3 4 35 931 38 935 3 2 561 90 563 89 0 -1 -2 -53 -4 -117z
m6497 -46 c-1 -147 -24 -691 -30 -697 -7 -7 -201 -37 -206 -32 -5 5 26 789 32
794 4 5 152 30 183 31 21 1 22 -2 21 -96z m-342 -5 c-4 -29 -12 -211 -18 -405
l-13 -351 -34 -7 c-41 -8 -32 -15 -229 179 -79 77 -146 137 -149 133 -3 -3 -9
-85 -13 -181 -5 -97 -10 -178 -12 -181 -8 -7 -201 -37 -206 -31 -3 2 3 177 11
389 9 211 16 391 16 400 0 9 13 17 36 21 35 7 38 5 208 -158 l173 -166 8 189
7 189 91 15 c140 23 130 25 124 -35z m-781 -305 c-4 -131 -12 -267 -17 -303
-26 -166 -121 -278 -269 -316 -194 -49 -343 64 -343 261 -1 131 15 482 22 493
6 10 200 47 207 40 1 -2 -2 -117 -8 -255 -6 -139 -7 -264 -4 -278 25 -100 157
-78 179 30 4 17 11 142 17 280 6 137 13 252 16 254 6 6 140 28 178 30 l29 1
-7 -237z m-745 -258 c-11 -235 -25 -288 -99 -367 -97 -104 -282 -144 -378 -82
-13 9 -24 20 -24 26 0 5 21 45 46 88 40 69 48 79 64 70 27 -15 77 -12 110 5
56 29 62 55 72 334 4 141 10 261 12 266 1 6 47 17 102 25 l99 15 3 -90 c2 -49
-1 -180 -7 -290z m-841 146 l0 -98 -124 -18 c-69 -10 -129 -21 -134 -24 -6 -3
-13 -27 -17 -53 -6 -43 -5 -48 11 -48 20 0 128 16 177 26 l27 6 0 -91 c0 -103
11 -93 -127 -112 -100 -14 -103 -16 -103 -86 0 -40 0 -40 158 -14 l112 18 0
-99 c0 -70 -4 -100 -12 -103 -23 -8 -471 -75 -475 -71 -4 4 26 788 30 793 4 3
427 70 455 72 21 1 22 -2 22 -98z m-809 -68 c75 -24 158 -107 183 -183 86
-268 -49 -515 -320 -584 -72 -18 -325 -58 -331 -52 -5 5 26 788 31 794 2 2 57
11 122 21 156 24 248 25 315 4z m-876 -210 c-3 -71 -10 -249 -16 -398 -6 -148
-13 -272 -15 -274 -5 -6 -151 -30 -184 -30 l-25 -1 10 271 c11 291 13 275 -37
254 -16 -6 -18 1 -17 76 2 131 -2 126 129 181 63 26 125 48 138 48 l23 0 -6
-127z m-375 50 c0 -72 -32 -779 -36 -782 -5 -6 -151 -30 -184 -30 l-25 -1 10
271 c11 291 13 275 -37 254 -16 -6 -18 0 -18 68 0 115 7 137 49 155 206 87
241 97 241 65z m-979 -179 c226 -114 214 -576 -18 -736 -168 -115 -372 -50
-443 140 -75 198 10 480 174 581 86 53 200 59 287 15z m-571 -61 c0 -72 -32
-779 -36 -782 -5 -6 -151 -30 -184 -30 l-25 -1 10 271 c11 291 13 275 -37 254
-17 -7 -18 2 -18 98 l0 105 118 50 c125 54 172 63 172 35z m1194 -205 c-4 -46
-8 -85 -11 -87 -3 -4 -345 -60 -370 -61 -10 0 -13 24 -13 85 0 59 4 87 13 90
22 8 311 53 350 54 l37 1 -6 -82z m3806 -179 c60 -27 104 -71 132 -133 19 -42
23 -68 23 -151 0 -89 -3 -107 -29 -163 -75 -162 -263 -251 -431 -203 -72 21
-145 96 -169 174 -28 88 -19 203 21 287 84 178 287 262 453 189z m-754 -261
c-4 -101 -9 -211 -12 -245 l-6 -63 29 0 c16 0 56 5 89 10 32 6 72 12 87 15
l28 5 -3 -83 -3 -82 -200 -31 c-110 -17 -201 -30 -202 -29 -4 2 17 532 23 602
l5 62 52 9 c29 5 67 10 86 11 l33 1 -6 -182z m-480 -80 c-4 -101 -9 -211 -12
-245 l-6 -63 29 0 c16 0 56 5 89 10 32 6 72 12 87 15 l28 5 -3 -83 -3 -82
-200 -31 c-110 -17 -201 -30 -202 -29 -4 2 17 532 23 602 l5 62 52 9 c29 5 67
10 86 11 l33 1 -6 -182z m-289 35 c-4 -60 -10 -203 -13 -320 -4 -116 -10 -217
-14 -223 -4 -6 -44 -17 -90 -24 l-82 -14 6 92 c3 50 8 172 11 271 3 99 8 208
11 242 l5 62 52 9 c29 5 67 10 86 11 l34 1 -6 -107z m-286 -51 c-1 -59 -6
-169 -11 -245 -7 -127 -11 -145 -40 -204 -39 -78 -97 -124 -187 -149 -74 -20
-130 -14 -189 21 -95 56 -104 105 -88 466 l7 147 68 11 c114 19 103 43 95
-212 -7 -218 -7 -223 14 -250 41 -52 120 -23 139 51 5 20 12 130 16 244 l7
208 32 5 c110 18 131 21 135 18 3 -2 4 -52 2 -111z m-753 -46 c37 -19 52 -32
48 -42 -8 -21 -86 -134 -92 -134 -3 0 -17 9 -31 20 -132 104 -324 -104 -246
-267 47 -100 196 -97 256 5 11 18 17 35 14 38 -3 3 -33 1 -66 -4 l-61 -9 0 63
c0 72 -16 63 155 89 55 8 115 17 134 21 l34 5 -5 -85 c-12 -190 -129 -323
-316 -358 -126 -23 -243 30 -297 136 -28 55 -30 68 -30 165 0 93 3 113 26 161
89 190 311 280 477 196z m-692 -87 c17 -5 42 -22 57 -37 80 -83 74 -206 -14
-294 l-47 -47 85 -113 84 -113 -73 -12 c-121 -20 -110 -25 -190 97 -40 60 -76
110 -80 110 -5 0 -8 -54 -8 -119 0 -73 -4 -122 -10 -126 -6 -4 -47 -12 -90
-19 l-80 -13 6 116 c3 64 9 212 13 329 5 117 11 215 13 218 3 2 58 13 124 23
117 19 149 19 210 0z m-567 -382 c67 -164 123 -304 124 -310 2 -8 -104 -33
-160 -36 -6 -1 -17 15 -23 34 -13 40 -12 40 -135 20 -49 -8 -93 -15 -97 -15
-4 0 -13 -18 -19 -40 -7 -22 -19 -42 -28 -44 -32 -9 -173 -28 -177 -23 -5 4
289 693 300 704 9 9 80 20 88 14 3 -3 61 -140 127 -304z m-564 126 c-3 -65
-10 -213 -15 -330 -4 -117 -11 -216 -14 -221 -3 -5 -32 -13 -63 -17 -32 -3
-69 -9 -82 -12 l-24 -6 7 129 c4 79 3 125 -3 119 -5 -6 -45 -66 -89 -134 l-80
-124 -73 109 -74 109 -3 -120 c-1 -66 -6 -123 -11 -128 -14 -14 -171 -36 -171
-23 6 178 29 658 31 661 2 2 20 5 39 7 34 3 34 3 145 -163 60 -92 114 -168
118 -168 5 -1 68 92 141 206 130 204 134 208 172 214 21 3 43 7 47 8 4 0 5
-52 2 -116z m-896 -346 c67 -164 123 -304 124 -310 2 -8 -104 -33 -160 -36 -6
-1 -17 15 -23 34 -13 40 -12 40 -135 20 -49 -8 -93 -15 -97 -15 -4 0 -13 -18
-19 -40 -7 -22 -19 -42 -28 -44 -32 -9 -173 -28 -177 -23 -5 4 289 693 300
704 9 9 80 20 88 14 3 -3 61 -140 127 -304z m-510 131 c0 -179 -16 -381 -33
-426 -37 -103 -130 -170 -249 -179 -64 -5 -137 15 -137 39 0 5 16 37 36 72 35
61 38 63 64 53 55 -21 121 21 134 84 3 18 6 68 6 114 0 45 3 136 6 203 l7 120
56 10 c31 5 68 10 84 11 l27 1 -1 -102z m1856 -1043 c0 -25 -4 -31 -26 -33
-31 -4 -44 19 -28 49 6 13 18 19 32 17 17 -2 22 -10 22 -33z m-257 -31 c2 -11
-4 -26 -12 -33 -31 -26 -71 14 -45 45 17 21 53 14 57 -12z m-274 -10 c22 -8
20 -51 -2 -63 -21 -11 -52 3 -52 24 0 12 26 45 35 45 2 0 10 -3 19 -6z m-247
-50 c9 -24 -10 -49 -38 -49 -27 0 -37 28 -19 50 17 20 49 19 57 -1z m-260 -40
c9 -24 -10 -49 -38 -49 -27 0 -37 28 -19 50 17 20 49 19 57 -1z m-267 -29 c24
-28 -9 -72 -45 -59 -21 8 -19 51 3 63 23 14 28 13 42 -4z m-259 -41 c17 -21 0
-49 -32 -49 -27 0 -37 28 -19 50 16 19 34 19 51 -1z m-257 -39 c12 -31 -27
-67 -54 -50 -11 7 -14 48 -3 58 12 13 51 7 57 -8z m-264 -35 c8 -15 6 -24 -10
-40 -34 -34 -72 -1 -44 39 19 26 40 27 54 1z m-265 -55 c0 -24 -5 -31 -24 -33
-37 -6 -52 26 -25 53 25 25 49 15 49 -20z m-257 -31 c2 -11 -4 -26 -12 -33
-31 -26 -71 14 -45 45 17 21 53 14 57 -12z m-274 -10 c23 -9 20 -51 -5 -64
-38 -21 -65 22 -33 54 18 18 17 18 38 10z"/>
<path d="M6375 9476 c-117 -54 -180 -204 -141 -338 34 -120 119 -167 237 -132
104 31 179 147 179 278 0 168 -131 260 -275 192z"/>
<path d="M3848 9093 l-28 -4 0 -90 c0 -100 1 -101 82 -79 74 21 103 106 53
155 -24 25 -43 28 -107 18z"/>
<path d="M2924 8946 c-174 -81 -208 -370 -54 -460 25 -15 52 -21 91 -20 143 2
250 143 236 310 -12 158 -135 234 -273 170z"/>
<path d="M5545 7941 c-121 -31 -195 -139 -195 -284 1 -110 33 -168 113 -202
106 -44 240 27 287 151 28 75 27 182 -1 242 -36 73 -124 114 -204 93z"/>
<path d="M4629 7803 c-19 -5 -29 -44 -29 -108 0 -46 -4 -44 63 -30 41 8 67 39
67 79 0 51 -41 75 -101 59z"/>
<path d="M4635 7491 l-40 -6 -3 -89 -3 -88 48 6 c26 4 63 12 80 17 71 22 98
108 47 148 -27 21 -53 24 -129 12z"/>
<path d="M9663 7540 c-37 -9 -73 -30 -104 -62 -88 -93 -76 -287 21 -339 103
-56 242 29 270 165 31 150 -62 267 -187 236z"/>
<path d="M5463 6882 c-16 -10 -21 -56 -28 -244 l-5 -148 28 0 c16 0 56 14 89
30 84 42 116 90 121 180 5 79 -14 128 -59 161 -31 22 -126 36 -146 21z"/>
<path d="M3274 6550 c-30 -12 -70 -67 -83 -115 -17 -62 -14 -190 6 -228 31
-60 79 -74 127 -36 45 35 68 94 74 186 9 147 -42 226 -124 193z"/>
<path d="M7680 6143 c-97 -37 -150 -185 -100 -283 36 -70 117 -90 192 -48 109
62 131 260 34 319 -30 18 -93 24 -126 12z"/>
<path d="M4457 5643 c-4 -3 -7 -34 -7 -68 l0 -62 42 7 c65 12 94 61 68 111 -8
14 -21 19 -54 19 -23 0 -46 -3 -49 -7z"/>
<path d="M3874 5394 c-4 -10 -18 -46 -30 -78 -13 -33 -24 -62 -24 -66 0 -7
111 7 118 15 6 5 -38 126 -49 139 -5 5 -11 1 -15 -10z"/>
<path d="M2414 5174 c-4 -10 -18 -46 -30 -78 -13 -33 -24 -62 -24 -66 0 -7
111 7 118 15 6 5 -38 126 -49 139 -5 5 -11 1 -15 -10z"/>
<path d="M10026 4984 c-20 -20 -18 -43 6 -58 26 -16 68 26 52 52 -15 24 -38
26 -58 6z"/>
<path d="M9760 4945 c-19 -23 -8 -50 22 -53 19 -2 30 3 38 18 21 39 -31 70
-60 35z"/>
<path d="M9502 4908 c-15 -15 -16 -44 -1 -53 5 -4 21 -4 35 -1 20 5 25 12 22
34 -3 30 -35 41 -56 20z"/>
<path d="M9248 4879 c-25 -14 -23 -56 2 -64 28 -9 52 13 48 44 -3 28 -23 36
-50 20z"/>
<path d="M8981 4836 c-21 -26 -9 -51 24 -51 27 0 30 3 30 30 0 23 -5 31 -21
33 -11 2 -26 -4 -33 -12z"/>
<path d="M8714 4796 c-11 -28 1 -51 25 -51 28 0 47 25 38 49 -8 20 -56 21 -63
2z"/>
<path d="M10027 4722 c-10 -10 -17 -23 -17 -29 0 -19 28 -35 49 -28 25 8 36
41 21 60 -17 20 -33 19 -53 -3z"/>
<path d="M9762 4688 c-29 -29 0 -78 36 -59 11 6 23 18 26 27 13 34 -35 59 -62
32z"/>
<path d="M9501 4646 c-21 -26 -9 -51 24 -51 27 0 30 3 30 30 0 23 -5 31 -21
33 -11 2 -26 -4 -33 -12z"/>
<path d="M9246 4617 c-23 -17 -18 -60 7 -65 39 -8 68 58 31 72 -20 8 -17 8
-38 -7z"/>
<path d="M8982 4578 c-16 -16 -16 -54 1 -61 6 -2 22 0 35 4 18 7 23 15 20 36
-3 31 -34 43 -56 21z"/>
<path d="M8714 4536 c-11 -28 1 -51 25 -51 28 0 47 25 38 49 -8 20 -56 21 -63
2z"/>
<path d="M10029 4461 c-24 -19 -21 -47 6 -57 18 -7 55 22 55 42 0 7 -9 18 -19
24 -15 7 -25 5 -42 -9z"/>
<path d="M9766 4427 c-22 -16 -18 -46 7 -61 26 -16 62 27 47 55 -12 22 -29 24
-54 6z"/>
<path d="M6112 4385 c-102 -32 -162 -113 -170 -230 -6 -92 19 -152 81 -193 34
-23 51 -27 106 -26 74 1 116 18 169 68 56 52 76 101 76 186 0 84 -15 122 -64
163 -53 45 -121 56 -198 32z m123 -126 c29 -28 28 -126 -1 -166 -31 -41 -84
-59 -121 -41 -39 18 -66 77 -57 123 7 40 46 92 78 106 30 12 77 2 101 -22z"/>
<path d="M9501 4386 c-21 -26 -9 -51 24 -51 27 0 30 3 30 30 0 23 -5 31 -21
33 -11 2 -26 -4 -33 -12z"/>
<path d="M9252 4359 c-18 -7 -23 -15 -20 -36 5 -49 68 -38 68 12 0 27 -17 35
-48 24z"/>
<path d="M5836 4339 c-27 -4 -52 -11 -56 -16 -4 -4 -11 -106 -15 -226 -6 -209
-6 -219 12 -214 10 3 35 8 55 11 35 6 37 9 42 49 6 52 19 407 14 406 -1 -1
-25 -5 -52 -10z"/>
<path d="M8982 4318 c-17 -17 -15 -55 4 -62 27 -10 56 12 52 42 -3 30 -35 41
-56 20z"/>
<path d="M5622 4293 c-11 -16 -54 -81 -95 -146 l-76 -119 -77 116 c-61 91 -82
116 -100 116 -13 0 -25 -7 -28 -17 -2 -10 -7 -114 -11 -231 -7 -205 -6 -214
12 -209 10 3 35 8 55 12 41 6 45 17 50 120 l3 50 45 -67 c25 -37 47 -68 50
-68 3 0 29 38 59 85 29 47 55 85 58 85 3 0 2 -38 -2 -84 l-7 -83 58 9 c32 5
59 10 60 11 1 1 6 102 11 225 l8 222 -27 0 c-18 0 -33 -9 -46 -27z"/>
<path d="M8723 4284 c-19 -8 -16 -54 3 -61 24 -9 49 10 49 38 0 24 -24 34 -52
23z"/>
<path d="M5041 4220 c-63 -11 -117 -22 -121 -27 -4 -4 -11 -106 -15 -226 -6
-209 -6 -219 12 -214 10 3 71 14 136 23 l117 17 0 55 0 54 -47 -6 c-27 -4 -61
-9 -76 -12 -27 -6 -28 -4 -25 28 3 32 5 33 63 43 l60 10 3 48 3 48 -64 -7 -64
-6 5 30 c4 32 1 31 110 47 l42 7 0 54 c0 37 -4 54 -12 53 -7 -1 -64 -9 -127
-19z"/>
<path d="M10020 4195 c-18 -22 -3 -55 25 -55 27 0 48 30 39 54 -8 20 -48 21
-64 1z"/>
<path d="M7797 4180 c-44 -8 -39 -4 -66 -57 -26 -53 -26 -53 5 -53 16 0 36 11
52 29 32 33 67 92 55 90 -4 -1 -25 -5 -46 -9z"/>
<path d="M9766 4165 c-20 -21 -20 -39 0 -56 23 -19 49 1 49 37 0 34 -24 43
-49 19z"/>
<path d="M4576 4149 c-27 -4 -52 -11 -56 -16 -4 -4 -11 -106 -14 -226 -7 -209
-7 -219 11 -214 10 3 35 8 55 12 41 6 45 17 50 120 l3 50 50 -73 50 -73 55 6
c30 4 58 10 62 13 4 4 -17 39 -47 79 l-55 71 34 34 c41 41 54 93 37 149 -22
73 -91 93 -235 68z m122 -137 c-3 -29 -53 -61 -69 -45 -14 14 1 82 20 86 29 7
52 -12 49 -41z"/>
<path d="M8382 4133 c-18 -3 -35 -10 -38 -16 -2 -7 -7 -59 -12 -117 l-7 -105
-101 98 c-61 59 -109 97 -121 97 -26 0 -29 -30 -39 -303 l-6 -188 23 5 c13 3
40 7 60 11 34 5 37 8 43 52 3 25 6 77 6 115 l0 70 106 -101 c59 -56 113 -101
120 -101 26 0 32 38 39 263 l7 227 -24 -2 c-12 0 -38 -3 -56 -5z"/>
<path d="M9502 4128 c-31 -31 7 -81 43 -55 23 18 16 61 -10 65 -11 1 -26 -3
-33 -10z"/>
<path d="M4206 4089 c-27 -4 -52 -11 -56 -16 -4 -4 -11 -106 -15 -226 -6 -209
-6 -219 12 -214 10 3 34 8 54 11 41 7 49 22 49 93 0 38 3 43 28 49 121 26 172
79 172 179 0 117 -71 153 -244 124z m132 -135 c3 -34 -9 -48 -50 -58 -34 -8
-40 3 -32 54 7 40 8 41 43 38 32 -3 36 -6 39 -34z"/>
<path d="M9234 4074 c-7 -29 6 -47 31 -42 44 8 45 68 1 68 -19 0 -27 -7 -32
-26z"/>
<path d="M8980 4056 c-16 -21 -9 -60 13 -64 25 -5 47 16 47 43 0 33 -38 46
-60 21z"/>
<path d="M7702 4027 c-45 -14 -118 -81 -144 -131 -41 -81 -35 -209 14 -279 46
-65 172 -91 263 -53 50 21 110 79 137 131 25 48 34 145 19 203 -14 51 -64 110
-108 128 -38 16 -133 17 -181 1z m106 -108 c90 -31 84 -190 -9 -241 -88 -48
-168 34 -139 142 13 47 57 96 93 103 12 2 22 5 23 6 1 0 15 -4 32 -10z"/>
<path d="M8722 4018 c-26 -26 -6 -70 29 -61 20 6 35 44 24 62 -8 15 -38 14
-53 -1z"/>
<path d="M7340 3976 l-134 -21 -7 -32 c-3 -17 -9 -126 -13 -242 l-7 -211 28 6
c15 3 80 13 143 22 l115 18 3 58 3 58 -58 -7 c-32 -3 -68 -9 -80 -12 -21 -5
-23 -1 -23 30 0 38 -3 36 91 52 31 5 38 10 43 36 14 71 13 72 -62 64 l-68 -7
4 34 4 34 74 11 c42 6 76 12 78 14 7 8 14 119 8 118 -4 -1 -68 -11 -142 -23z"/>
<path d="M10020 3935 c-19 -23 -8 -50 22 -53 30 -4 52 25 42 52 -8 20 -48 21
-64 1z"/>
<path d="M6875 3906 c-85 -14 -79 4 -89 -286 -7 -202 -7 -212 11 -207 10 3 37
8 60 12 l41 6 9 72 8 71 42 8 c55 9 95 31 126 67 93 111 32 274 -100 270 -21
-1 -69 -7 -108 -13z m123 -118 c30 -30 4 -80 -49 -93 -34 -9 -40 2 -33 59 6
44 8 46 38 46 18 0 37 -5 44 -12z"/>
<path d="M9765 3904 c-35 -35 8 -82 44 -50 25 23 26 30 5 50 -20 20 -29 20
-49 0z"/>
<path d="M6668 3873 c-9 -2 -31 -28 -50 -56 -18 -29 -61 -97 -96 -151 l-64
-99 -80 122 c-71 106 -84 121 -108 121 -27 0 -28 -3 -34 -57 -3 -32 -8 -143
-12 -247 -6 -180 -5 -188 12 -183 11 3 38 8 61 12 l42 7 5 51 c4 29 7 70 9 92
l2 40 48 -78 c27 -42 52 -75 56 -73 4 3 32 44 62 92 l54 88 3 -88 3 -88 52 7
c29 4 56 10 60 15 7 6 26 325 27 448 0 33 -8 37 -52 25z"/>
<path d="M9502 3868 c-30 -30 0 -78 38 -58 15 8 20 19 18 38 -3 30 -35 41 -56
20z"/>
<path d="M9241 3826 c-21 -26 -9 -51 24 -51 27 0 30 3 30 30 0 23 -5 31 -21
33 -11 2 -26 -4 -33 -12z"/>
<path d="M8986 3797 c-23 -17 -18 -60 7 -65 39 -8 68 58 31 72 -20 8 -17 8
-38 -7z"/>
<path d="M8722 3758 c-17 -17 -15 -55 4 -62 27 -10 56 12 52 42 -3 30 -35 41
-56 20z"/>
<path d="M5912 3743 c-17 -31 -212 -491 -212 -498 0 -7 69 0 117 12 12 2 27
17 33 33 12 29 17 31 122 46 45 6 48 5 58 -20 9 -24 12 -25 57 -19 88 11 88
-5 -12 240 l-90 223 -32 0 c-21 0 -36 -6 -41 -17z m61 -270 l17 -42 -35 -7
c-19 -3 -38 -4 -43 -3 -5 2 0 28 11 57 22 58 26 57 50 -5z"/>
<path d="M5468 3686 c-115 -32 -197 -141 -198 -265 -1 -116 54 -198 147 -220
75 -18 188 14 237 68 18 20 18 21 -14 61 -17 22 -35 40 -39 40 -4 0 -16 -9
-26 -20 -10 -11 -34 -24 -54 -30 -77 -21 -141 50 -125 138 9 45 56 98 100 112
30 10 41 9 77 -9 l42 -21 37 42 c34 41 36 44 20 62 -41 45 -128 63 -204 42z"/>
<path d="M10020 3675 c-19 -23 -8 -50 22 -53 30 -4 52 25 42 52 -8 20 -48 21
-64 1z"/>
<path d="M9771 3643 c-28 -19 -24 -57 5 -61 25 -4 57 29 48 51 -9 23 -29 27
-53 10z"/>
<path d="M9507 3549 c7 -7 15 -10 18 -7 3 3 -2 9 -12 12 -14 6 -15 5 -6 -5z"/>
<path d="M8987 3539 c-17 -10 -24 -59 -8 -59 8 0 34 60 28 66 -1 1 -10 -2 -20
-7z"/>
<path d="M10018 3404 c-10 -22 -10 -28 6 -40 34 -24 82 20 56 51 -19 23 -49
18 -62 -11z"/>
<path d="M9760 3375 c-19 -23 -8 -50 22 -53 30 -4 52 25 42 52 -8 20 -48 21
-64 1z"/>
<path d="M9508 3349 c-20 -11 -24 -44 -6 -55 13 -8 60 45 52 58 -7 11 -25 10
-46 -3z"/>
<path d="M9026 3244 c-4 -9 -4 -19 -1 -22 2 -3 7 3 11 12 4 9 4 19 1 22 -2 3
-7 -3 -11 -12z"/>
<path d="M8721 3236 c-21 -25 -10 -61 18 -61 31 0 50 28 35 53 -15 23 -38 26
-53 8z"/>
<path d="M9723 3045 c-98 -59 -113 -216 -27 -284 30 -24 103 -28 151 -10 117
44 152 224 58 297 -40 32 -126 30 -182 -3z m130 -73 c27 -24 23 -97 -8 -127
-48 -49 -119 -20 -119 49 0 40 27 84 57 95 25 9 44 5 70 -17z"/>
<path d="M9513 3032 l-103 -16 0 -38 c0 -36 1 -38 33 -38 l33 0 -4 -121 -5
-120 39 7 c22 3 40 7 41 8 1 1 5 56 9 123 l7 121 33 7 c32 5 34 9 34 45 0 22
-3 39 -7 39 -5 -1 -54 -9 -110 -17z"/>
<path d="M9232 2983 c-36 -17 -62 -58 -62 -96 0 -29 29 -61 80 -87 64 -33 43
-77 -24 -51 -28 11 -33 9 -55 -16 l-23 -27 22 -18 c51 -42 126 -34 177 17 57
57 40 117 -44 158 -51 24 -57 34 -31 51 13 8 23 8 37 -1 17 -11 23 -9 40 16
27 38 27 40 -14 57 -44 18 -62 17 -103 -3z"/>
<path d="M9024 2953 l-91 -15 -7 -75 c-3 -42 -6 -116 -6 -165 0 -87 0 -88 23
-83 25 5 148 25 160 25 4 0 7 18 7 40 l0 40 -55 -6 c-51 -6 -55 -5 -55 14 0
15 8 23 25 27 14 3 36 7 50 10 21 5 25 11 25 40 0 33 -1 34 -32 29 -18 -3 -39
-7 -45 -10 -8 -2 -13 6 -13 21 0 20 6 25 38 30 70 12 72 14 72 56 0 21 -1 39
-2 38 -2 -1 -44 -8 -94 -16z"/>
<path d="M8803 2913 c-9 -3 -13 -31 -13 -91 0 -143 -29 -202 -75 -156 -14 15
-16 32 -9 126 l7 109 -39 -7 c-22 -3 -41 -9 -44 -11 -11 -10 -11 -242 -1 -262
29 -53 120 -64 180 -22 42 30 59 88 64 214 l4 107 -31 -1 c-17 0 -37 -3 -43
-6z"/>
<path d="M8389 2853 c-25 -4 -26 -8 -33 -80 -3 -42 -6 -116 -6 -166 0 -77 2
-88 16 -83 9 3 27 6 40 6 22 0 24 4 24 49 0 48 1 50 33 56 80 18 117 60 117
135 0 63 -33 90 -107 89 -32 -1 -70 -4 -84 -6z m95 -69 c36 -14 8 -74 -33 -74
-15 0 -14 67 2 73 6 3 13 6 14 6 1 1 8 -2 17 -5z"/>
<path d="M7872 2773 c-18 -9 -40 -29 -48 -44 -15 -30 -19 -69 -6 -69 4 0 17
-3 30 -6 15 -5 22 -2 22 8 0 19 32 48 52 48 9 0 21 -7 28 -15 20 -23 -5 -66
-89 -157 -62 -67 -83 -98 -66 -98 10 0 200 30 223 35 18 4 22 12 22 41 0 36 0
36 -39 32 l-39 -3 30 33 c16 19 34 45 39 59 41 108 -53 189 -159 136z"/>
<path d="M8080 2710 c-41 -41 -13 -110 44 -110 19 0 40 8 49 18 37 41 6 112
-48 112 -14 0 -34 -9 -45 -20z m69 -14 c7 -8 11 -27 9 -43 -2 -21 -9 -29 -27
-31 -27 -4 -41 12 -41 50 0 36 37 51 59 24z"/>
<path d="M12550 2479 c-17 -30 -6 -34 14 -4 9 14 12 25 7 25 -6 0 -15 -9 -21
-21z"/>
<path d="M12836 2438 c-3 -29 -6 -68 -6 -86 l0 -33 -62 71 c-63 70 -63 71 -69
43 -11 -47 -10 -193 1 -193 6 0 11 24 11 53 1 28 4 65 8 81 l6 30 60 -69 60
-68 7 54 c9 81 9 169 -1 169 -4 0 -11 -24 -15 -52z"/>
<path d="M12521 2427 c-43 -22 -66 -64 -66 -119 0 -42 4 -53 28 -74 69 -59
167 4 167 108 -1 46 -12 68 -47 86 -28 15 -52 15 -82 -1z m93 -40 c39 -47 -7
-149 -68 -149 -80 0 -96 118 -23 162 36 22 63 18 91 -13z"/>
<path d="M12405 2410 c-13 -21 -20 -220 -7 -220 6 0 13 44 17 104 8 110 5 140
-10 116z"/>
<path d="M12243 2380 c-44 -27 -67 -73 -60 -124 6 -45 44 -86 79 -86 30 0 88
30 88 46 0 18 -14 18 -30 -1 -18 -22 -73 -19 -95 5 -23 25 -23 81 -2 114 23
34 68 48 101 31 31 -17 47 0 20 20 -27 20 -64 18 -101 -5z"/>
<path d="M12044 2348 c-13 -20 -18 -218 -6 -218 6 0 12 19 14 42 3 39 6 42 38
50 67 17 102 85 62 121 -22 20 -97 23 -108 5z m90 -24 c9 -8 16 -19 16 -24 0
-17 -36 -48 -62 -54 -27 -6 -28 -5 -28 38 0 26 5 46 13 49 24 10 46 7 61 -9z"/>
<path d="M11975 2340 c-13 -21 -20 -220 -7 -220 6 0 13 44 17 104 8 110 5 140
-10 116z"/>
<path d="M11794 2318 c-13 -21 -18 -218 -5 -218 6 0 11 18 11 44 0 36 4 46 21
51 14 5 25 1 34 -12 31 -44 54 -67 60 -61 4 3 -5 23 -19 44 -25 37 -25 38 -6
51 23 16 28 81 8 101 -15 15 -95 16 -104 0z m86 -23 c20 -24 4 -62 -31 -74
-18 -6 -34 -11 -35 -11 -11 0 -2 89 9 93 23 10 45 7 57 -8z"/>
<path d="M11633 2290 c-44 -27 -67 -73 -60 -124 6 -45 44 -86 79 -86 30 0 88
30 88 46 0 18 -14 18 -30 -1 -18 -22 -73 -19 -95 5 -23 25 -23 81 -2 114 23
34 68 48 101 31 31 -17 47 0 20 20 -27 20 -64 18 -101 -5z"/>
<path d="M11440 2250 c-37 -37 -25 -65 43 -99 42 -21 48 -56 13 -73 -20 -8
-32 -8 -52 1 -31 14 -42 8 -24 -14 20 -24 77 -19 105 10 40 39 29 71 -34 100
-31 14 -41 24 -41 41 0 28 42 43 64 25 10 -8 16 -9 21 -1 21 33 -62 43 -95 10z"/>
<path d="M11356 2208 c-3 -29 -6 -68 -6 -86 l0 -33 -62 71 c-63 70 -63 71 -69
43 -11 -47 -10 -193 1 -193 6 0 11 24 11 53 1 28 4 65 8 81 l6 30 60 -69 60
-68 7 54 c9 81 9 169 -1 169 -4 0 -11 -24 -15 -52z"/>
<path d="M11155 2220 c-13 -21 -20 -220 -7 -220 6 0 13 44 17 104 8 110 5 140
-10 116z"/>
<path d="M10955 2191 c-47 -7 -52 -20 -54 -149 -1 -75 1 -83 17 -78 9 2 36 8
60 11 62 10 54 29 -9 21 l-50 -7 3 38 c3 36 5 38 46 47 54 11 56 30 1 23 l-40
-5 3 36 c3 35 5 37 40 40 20 2 42 10 48 18 14 16 8 16 -65 5z"/>
<path d="M10714 2148 c-4 -6 -10 -59 -12 -116 -4 -98 -4 -104 14 -99 11 3 34
8 52 12 17 4 46 20 62 37 25 25 30 37 30 79 0 68 -30 99 -94 99 -25 0 -48 -5
-52 -12z m101 -33 c34 -33 33 -76 -2 -115 -16 -16 -43 -33 -61 -36 l-34 -7 8
84 c4 46 12 87 18 91 21 14 47 8 71 -17z"/>
<path d="M10480 2100 c-37 -37 -25 -65 43 -99 42 -21 48 -56 13 -73 -20 -8
-32 -8 -52 1 -31 14 -42 8 -24 -14 20 -24 77 -19 105 10 40 39 29 71 -34 100
-31 14 -41 24 -41 41 0 28 42 43 64 25 10 -8 16 -9 21 -1 21 33 -62 43 -95 10z"/>
<path d="M10302 1983 c-29 -68 -46 -120 -40 -122 9 -3 23 11 31 33 1 5 25 12
52 16 40 7 52 5 62 -7 6 -8 16 -13 21 -12 8 3 -59 194 -73 207 -1 1 -25 -50
-53 -115z m83 -44 c-8 -11 -75 -12 -75 0 0 5 10 30 21 57 l22 48 18 -48 c11
-26 17 -52 14 -57z"/>
<path d="M10200 2020 c0 -42 -3 -50 -19 -50 -10 0 -33 -3 -50 -6 l-31 -6 0 53
c0 40 -3 50 -12 41 -16 -16 -25 -222 -9 -222 7 0 11 20 11 50 0 55 0 55 69 64
l44 7 -5 -51 c-4 -34 -2 -50 6 -47 17 5 25 217 9 217 -9 0 -13 -17 -13 -50z"/>
<path d="M9933 2020 c-44 -27 -67 -73 -60 -124 6 -45 44 -86 79 -86 30 0 88
30 88 46 0 18 -14 18 -30 -1 -18 -22 -73 -19 -95 5 -23 25 -23 81 -2 114 23
34 68 48 101 31 31 -17 47 0 20 20 -27 20 -64 18 -101 -5z"/>
<path d="M12092 2012 c-16 -15 -32 -37 -36 -50 -4 -12 -14 -22 -22 -22 -8 0
-14 -5 -14 -11 0 -5 4 -8 9 -4 5 3 12 1 16 -4 3 -5 -3 -14 -12 -20 -17 -10
-17 -10 0 -11 9 0 17 -5 17 -10 0 -6 11 -22 25 -35 30 -31 92 -34 126 -6 34
27 19 35 -25 14 -34 -16 -40 -16 -64 -2 -38 21 -41 49 -5 50 15 0 37 5 48 10
14 6 3 7 -32 3 -62 -7 -75 12 -15 21 63 11 82 24 25 18 -62 -7 -67 3 -22 41
32 27 68 33 86 15 6 -6 17 -8 24 -4 20 13 -20 35 -62 35 -27 0 -45 -8 -67 -28z"/>
<path d="M9775 2011 c-47 -7 -52 -20 -54 -149 -1 -75 1 -83 17 -78 9 2 36 8
60 11 62 10 54 29 -9 21 l-50 -7 3 38 c3 36 5 38 46 47 54 11 56 30 1 23 l-40
-5 3 36 c3 35 5 37 40 40 20 2 42 10 48 18 14 16 8 16 -65 5z"/>
<path d="M11900 1997 c-55 -27 -76 -125 -40 -184 46 -76 140 -17 140 87 0 42
-23 100 -39 100 -5 0 -15 2 -23 5 -7 3 -24 -1 -38 -8z m68 -47 c25 -49 -10
-150 -53 -150 -48 0 -66 119 -24 161 26 26 60 21 77 -11z"/>
<path d="M9625 1991 c-47 -7 -52 -20 -54 -148 -1 -91 16 -116 21 -30 l3 52 39
5 c22 3 41 11 44 19 3 10 -4 12 -37 6 l-42 -7 3 39 c3 36 5 38 40 41 20 2 42
10 48 18 14 16 8 16 -65 5z"/>
<path d="M11720 1967 c-55 -27 -76 -125 -40 -184 46 -76 140 -17 140 87 0 42
-23 100 -39 100 -5 0 -15 2 -23 5 -7 3 -24 -1 -38 -8z m68 -47 c25 -49 -10
-150 -53 -150 -48 0 -66 119 -24 161 26 26 60 21 77 -11z"/>
<path d="M11582 1944 c-26 -18 -29 -34 -4 -28 15 5 17 -3 14 -85 -5 -107 12
-124 21 -23 9 91 9 152 -1 152 -4 0 -18 -7 -30 -16z"/>
<path d="M11261 1897 c-43 -22 -66 -64 -66 -119 0 -42 4 -53 28 -74 69 -59
167 4 167 108 -1 46 -12 68 -47 86 -28 15 -52 15 -82 -1z m93 -40 c39 -47 -7
-149 -68 -149 -80 0 -96 118 -23 162 36 22 63 18 91 -13z"/>
<path d="M11146 1839 l-29 -52 -18 24 c-10 13 -21 32 -25 42 -3 9 -12 17 -21
17 -11 0 -8 -12 16 -55 23 -41 31 -67 31 -105 0 -63 17 -65 25 -2 3 26 21 77
41 115 42 80 24 95 -20 16z"/>
<path d="M10922 1743 c-29 -68 -46 -120 -40 -122 9 -3 23 11 31 33 1 5 25 12
52 16 40 7 52 5 62 -7 6 -8 16 -13 21 -12 8 3 -59 194 -73 207 -1 1 -25 -50
-53 -115z m83 -44 c-8 -11 -75 -12 -75 0 0 5 10 30 21 57 l22 48 18 -48 c11
-26 17 -52 14 -57z"/>
<path d="M11432 1844 c4 -21 22 -23 26 -1 2 10 -3 17 -13 17 -10 0 -15 -6 -13
-16z"/>
<path d="M10820 1783 c-18 -32 -42 -73 -53 -92 l-20 -33 -42 77 -42 76 -6 -38
c-10 -60 -8 -183 3 -183 6 0 10 21 11 48 1 26 4 57 8 70 5 21 9 17 34 -33 15
-31 32 -53 37 -50 6 4 26 37 45 73 l34 67 1 -72 c0 -113 18 -86 22 35 2 59 3
108 2 110 -1 2 -16 -23 -34 -55z"/>
<path d="M10412 1688 l-42 -90 55 7 c51 6 55 5 55 -14 0 -12 6 -21 15 -21 9 0
15 9 15 24 0 13 6 27 13 30 10 5 10 7 0 12 -7 3 -13 23 -13 45 0 21 -4 39 -10
39 -5 0 -10 -18 -10 -39 0 -41 -11 -51 -56 -51 l-24 0 35 70 c39 78 40 80 23
80 -7 -1 -32 -42 -56 -92z"/>
<path d="M10312 1744 c-26 -18 -29 -34 -4 -28 15 5 17 -3 14 -85 -5 -107 12
-124 21 -23 9 91 9 152 -1 152 -4 0 -18 -7 -30 -16z"/>
<path d="M11425 1740 c-8 -13 4 -32 16 -25 12 8 12 35 0 35 -6 0 -13 -4 -16
-10z"/>
<path d="M12182 1692 c-16 -15 -32 -37 -36 -50 -4 -12 -14 -22 -22 -22 -8 0
-14 -5 -14 -11 0 -5 4 -8 9 -4 5 3 12 1 16 -4 3 -5 -3 -14 -12 -20 -17 -10
-17 -10 0 -11 9 0 17 -5 17 -10 0 -6 11 -22 25 -35 30 -31 92 -34 126 -6 34
27 19 35 -25 14 -34 -16 -40 -16 -64 -2 -38 21 -41 49 -5 50 15 0 37 5 48 10
14 6 3 7 -32 3 -62 -7 -75 12 -15 21 63 11 82 24 25 18 -62 -7 -67 3 -22 41
32 27 68 33 86 15 6 -6 17 -8 24 -4 20 13 -20 35 -62 35 -27 0 -45 -8 -67 -28z"/>
<path d="M11980 1677 c-55 -27 -76 -125 -40 -184 46 -76 140 -17 140 87 0 42
-23 100 -39 100 -5 0 -15 2 -23 5 -7 3 -24 -1 -38 -8z m68 -47 c25 -49 -10
-150 -53 -150 -48 0 -66 119 -24 161 26 26 60 21 77 -11z"/>
<path d="M11782 1558 l-42 -90 55 7 c51 6 55 5 55 -14 0 -12 6 -21 15 -21 9 0
15 9 15 24 0 13 6 27 13 30 10 5 10 7 0 12 -7 3 -13 23 -13 45 0 21 -4 39 -10
39 -5 0 -10 -18 -10 -39 0 -41 -11 -51 -56 -51 l-24 0 35 70 c39 78 40 80 23
80 -7 -1 -32 -42 -56 -92z"/>
<path d="M11682 1624 c-26 -18 -29 -34 -4 -28 15 5 17 -3 14 -85 -5 -107 12
-124 21 -23 9 91 9 152 -1 152 -4 0 -18 -7 -30 -16z"/>
<path d="M11361 1577 c-43 -22 -66 -64 -66 -119 0 -42 4 -53 28 -74 69 -59
167 4 167 108 -1 46 -12 68 -47 86 -28 15 -52 15 -82 -1z m93 -40 c39 -47 -7
-149 -68 -149 -80 0 -96 118 -23 162 36 22 63 18 91 -13z"/>
<path d="M11236 1519 l-29 -52 -18 24 c-10 13 -21 32 -25 42 -3 9 -12 17 -21
17 -11 0 -8 -12 16 -55 23 -41 31 -67 31 -105 0 -63 17 -65 25 -2 3 26 21 77
41 115 42 80 24 95 -20 16z"/>
<path d="M11022 1423 c-29 -68 -46 -120 -40 -122 9 -3 23 11 31 33 1 5 25 12
52 16 40 7 52 5 62 -7 6 -8 16 -13 21 -12 8 3 -59 194 -73 207 -1 1 -25 -50
-53 -115z m83 -44 c-8 -11 -75 -12 -75 0 0 5 10 30 21 57 l22 48 18 -48 c11
-26 17 -52 14 -57z"/>
<path d="M11522 1524 c4 -21 22 -23 26 -1 2 10 -3 17 -13 17 -10 0 -15 -6 -13
-16z"/>
<path d="M10910 1463 c-18 -32 -42 -73 -53 -92 l-20 -33 -42 77 -42 76 -6 -38
c-10 -60 -8 -183 3 -183 6 0 10 21 11 48 1 26 4 57 8 70 5 21 9 17 34 -33 15
-31 32 -53 37 -50 6 4 26 37 45 73 l34 67 1 -72 c0 -113 18 -86 22 35 2 59 3
108 2 110 -1 2 -16 -23 -34 -55z"/>
<path d="M10532 1453 c-21 -8 -34 -51 -22 -74 8 -14 7 -25 -5 -41 -49 -72 38
-136 100 -73 29 28 32 61 8 87 -13 14 -14 21 -5 30 15 15 15 51 0 66 -12 12
-52 15 -76 5z m64 -28 c9 -21 -14 -45 -42 -45 -19 0 -24 5 -24 24 0 35 55 52
66 21z m2 -112 c4 -36 -24 -59 -57 -48 -48 15 -23 89 27 83 22 -2 28 -9 30
-35z"/>
<path d="M10341 1409 c-22 -24 -28 -59 -11 -59 6 0 10 6 10 13 0 20 33 47 58
47 26 0 45 -33 36 -63 -4 -12 -34 -51 -68 -86 -50 -53 -57 -63 -36 -58 14 3
49 9 78 13 30 4 52 12 52 19 0 8 -13 10 -45 5 l-45 -7 40 43 c44 48 57 84 44
123 -8 22 -16 27 -51 29 -32 2 -46 -2 -62 -19z"/>
<path d="M11515 1420 c-8 -13 4 -32 16 -25 12 8 12 35 0 35 -6 0 -13 -4 -16
-10z"/>
<path d="M12262 1362 c-16 -15 -32 -37 -36 -50 -4 -12 -14 -22 -22 -22 -8 0
-14 -5 -14 -11 0 -5 4 -8 9 -4 5 3 12 1 16 -4 3 -5 -3 -14 -12 -20 -17 -10
-17 -10 0 -11 9 0 17 -5 17 -10 0 -6 11 -22 25 -35 30 -31 92 -34 126 -6 34
27 19 35 -25 14 -34 -16 -40 -16 -64 -2 -38 21 -41 49 -5 50 15 0 37 5 48 10
14 6 3 7 -32 3 -62 -7 -75 12 -15 21 63 11 82 24 25 18 -62 -7 -67 3 -22 41
32 27 68 33 86 15 6 -6 17 -8 24 -4 20 13 -20 35 -62 35 -27 0 -45 -8 -67 -28z"/>
<path d="M12070 1357 c-55 -27 -76 -125 -40 -184 46 -76 140 -17 140 87 0 42
-23 100 -39 100 -5 0 -15 2 -23 5 -7 3 -24 -1 -38 -8z m68 -47 c25 -49 -10
-150 -53 -150 -48 0 -66 119 -24 161 26 26 60 21 77 -11z"/>
<path d="M11877 1261 c-41 -76 -44 -96 -21 -129 21 -30 68 -29 99 3 44 43 28
115 -25 115 -36 0 -36 -1 -9 44 16 27 18 36 7 36 -8 0 -30 -31 -51 -69z m73
-46 c18 -21 4 -64 -25 -77 -21 -9 -28 -8 -45 7 -24 22 -25 34 -4 63 17 25 56
29 74 7z"/>
<path d="M11772 1304 c-26 -18 -29 -34 -4 -28 15 5 17 -3 14 -85 -5 -107 12
-124 21 -23 9 91 9 152 -1 152 -4 0 -18 -7 -30 -16z"/>
<path d="M11441 1257 c-43 -22 -66 -64 -66 -119 0 -42 4 -53 28 -74 69 -59
167 4 167 108 -1 46 -12 68 -47 86 -28 15 -52 15 -82 -1z m93 -40 c39 -47 -7
-149 -68 -149 -80 0 -96 118 -23 162 36 22 63 18 91 -13z"/>
<path d="M11325 1240 c-13 -21 -20 -220 -7 -220 6 0 13 44 17 104 8 110 5 140
-10 116z"/>
<path d="M11246 1178 c-3 -29 -6 -68 -6 -86 l0 -33 -62 71 c-63 70 -63 71 -69
43 -11 -47 -10 -193 1 -193 6 0 11 24 11 53 1 28 4 65 8 81 l6 30 60 -69 60
-68 7 54 c9 81 9 169 -1 169 -4 0 -11 -24 -15 -52z"/>
<path d="M11612 1194 c4 -21 22 -23 26 -1 2 10 -3 17 -13 17 -10 0 -15 -6 -13
-16z"/>
<path d="M11039 1104 c-4 -76 -7 -88 -28 -105 -29 -24 -36 -24 -62 2 -20 20
-21 28 -15 95 6 63 5 74 -9 74 -12 0 -15 -15 -15 -85 0 -72 3 -88 20 -105 29
-29 66 -25 101 9 24 24 29 38 29 78 0 26 3 65 6 86 5 29 3 37 -9 37 -12 0 -16
-17 -18 -86z"/>
<path d="M10838 1079 c-3 -100 -15 -119 -69 -119 -36 0 -47 -18 -17 -25 32 -8
74 9 91 37 20 30 29 198 11 198 -8 0 -13 -28 -16 -91z"/>
<path d="M10600 1135 c-8 -2 -32 -6 -52 -10 -59 -9 -47 -28 12 -20 28 4 50 5
50 2 0 -3 -18 -48 -41 -102 -22 -54 -39 -99 -37 -101 13 -13 34 28 115 224 5
11 -12 14 -47 7z"/>
<path d="M10390 1097 c-55 -27 -76 -125 -40 -184 46 -76 140 -17 140 87 0 42
-23 100 -39 100 -5 0 -15 2 -23 5 -7 3 -24 -1 -38 -8z m68 -47 c25 -49 -10
-150 -53 -150 -48 0 -66 119 -24 161 26 26 60 21 77 -11z"/>
<path d="M11605 1090 c-8 -13 4 -32 16 -25 12 8 12 35 0 35 -6 0 -13 -4 -16
-10z"/>
<path d="M1591 434 c-16 -11 -19 -20 -12 -27 7 -7 15 -6 25 3 9 7 23 10 31 6
22 -8 18 -37 -5 -43 -26 -7 -25 -16 3 -28 31 -14 31 -59 -2 -63 -13 -2 -28 1
-34 7 -6 6 -17 11 -24 11 -20 0 -4 -26 23 -39 63 -28 124 38 78 84 -13 12 -14
19 -5 28 16 16 14 34 -9 57 -24 24 -38 25 -69 4z"/>
<path d="M1754 393 c-50 -111 -50 -103 6 -103 43 0 50 -3 50 -20 0 -11 7 -20
15 -20 8 0 15 9 15 20 0 11 5 20 10 20 6 0 10 7 10 15 0 8 -4 15 -10 15 -5 0
-10 14 -10 30 0 20 -5 30 -15 30 -10 0 -15 -10 -15 -30 0 -27 -3 -30 -30 -30
l-29 0 29 65 c23 51 26 65 14 65 -8 0 -26 -25 -40 -57z"/>
<path d="M1980 398 c-46 -80 -48 -97 -16 -125 15 -13 36 -23 47 -23 24 0 69
43 69 65 0 22 -36 55 -60 55 l-20 0 20 40 c32 63 -3 52 -40 -12z m61 -64 c17
-21 0 -49 -31 -49 -31 0 -48 28 -31 49 8 9 21 16 31 16 10 0 23 -7 31 -16z"/>
<path d="M2140 398 c-46 -80 -48 -97 -16 -125 15 -13 36 -23 47 -23 24 0 69
43 69 65 0 22 -36 55 -60 55 l-20 0 20 40 c32 63 -3 52 -40 -12z m61 -64 c17
-21 0 -49 -31 -49 -31 0 -48 28 -31 49 8 9 21 16 31 16 10 0 23 -7 31 -16z"/>
<path d="M2276 438 c-8 -24 -14 -97 -9 -102 3 -3 13 0 23 6 24 16 70 2 70 -21
0 -30 -24 -43 -67 -36 l-38 6 24 -20 c31 -28 56 -26 86 4 31 30 32 58 4 86
-16 16 -29 20 -50 15 -29 -6 -34 0 -23 28 4 10 18 16 40 16 24 0 34 5 34 15 0
19 -89 22 -94 3z"/>
<path d="M2511 434 c-16 -11 -19 -20 -12 -27 7 -7 15 -6 25 3 9 7 23 10 31 6
22 -8 18 -37 -5 -43 -26 -7 -25 -16 3 -28 31 -14 31 -59 -2 -63 -13 -2 -28 1
-34 7 -6 6 -17 11 -24 11 -20 0 -4 -26 23 -39 63 -28 124 38 78 84 -13 12 -14
19 -5 28 16 16 14 34 -9 57 -24 24 -38 25 -69 4z"/>
<path d="M2656 438 c-8 -24 -14 -97 -9 -102 3 -3 13 0 23 6 24 16 70 2 70 -21
0 -30 -24 -43 -67 -36 l-38 6 24 -20 c31 -28 56 -26 86 4 31 30 32 58 4 86
-16 16 -29 20 -50 15 -29 -6 -34 0 -23 28 4 10 18 16 40 16 24 0 34 5 34 15 0
19 -89 22 -94 3z"/>
<path d="M2805 425 c-14 -13 -25 -32 -25 -42 0 -31 29 -63 56 -63 l26 0 -23
-36 c-20 -34 -21 -36 -3 -32 21 4 84 102 84 131 0 24 -44 67 -70 67 -11 0 -32
-11 -45 -25z m75 -20 c15 -18 10 -45 -12 -59 -35 -22 -74 27 -48 59 16 19 44
19 60 0z"/>
<path d="M3050 398 c-46 -80 -48 -97 -16 -125 15 -13 36 -23 47 -23 24 0 69
43 69 65 0 22 -36 55 -60 55 l-20 0 20 40 c32 63 -3 52 -40 -12z m61 -64 c17
-21 0 -49 -31 -49 -31 0 -48 28 -31 49 8 9 21 16 31 16 10 0 23 -7 31 -16z"/>
<path d="M3200 398 c-46 -80 -48 -97 -16 -125 15 -13 36 -23 47 -23 24 0 69
43 69 65 0 22 -36 55 -60 55 l-20 0 20 40 c32 63 -3 52 -40 -12z m61 -64 c17
-21 0 -49 -31 -49 -31 0 -48 28 -31 49 8 9 21 16 31 16 10 0 23 -7 31 -16z"/>
<path d="M3346 438 c-8 -24 -14 -97 -9 -102 3 -3 13 0 23 6 24 16 70 2 70 -21
0 -30 -24 -43 -67 -36 l-38 6 24 -20 c31 -28 56 -26 86 4 31 30 32 58 4 86
-16 16 -29 20 -50 15 -29 -6 -34 0 -23 28 4 10 18 16 40 16 24 0 34 5 34 15 0
19 -89 22 -94 3z"/>
<path d="M11040 415 c0 -9 9 -15 25 -15 25 0 25 -1 25 -85 0 -69 3 -85 15 -85
12 0 15 16 15 85 0 84 0 85 25 85 16 0 25 6 25 15 0 12 -14 15 -65 15 -51 0
-65 -3 -65 -15z"/>
<path d="M11214 396 c-44 -44 -45 -83 -5 -128 24 -27 36 -33 71 -33 35 0 47 6
72 34 25 28 29 39 24 70 -7 46 -55 91 -97 91 -22 0 -41 -10 -65 -34z m116 -16
c27 -27 26 -74 -2 -100 -45 -42 -118 -12 -118 50 0 38 32 70 70 70 17 0 39 -9
50 -20z"/>
<path d="M11410 330 c0 -82 3 -100 15 -100 11 0 15 11 15 40 0 22 4 40 10 40
5 0 22 -18 36 -40 15 -22 33 -40 40 -40 20 0 17 11 -9 44 -23 28 -23 30 -5 48
24 24 23 49 -3 82 -16 20 -29 26 -60 26 l-39 0 0 -100z m85 35 c0 -25 -4 -30
-27 -33 -26 -3 -28 -1 -28 33 0 34 2 36 28 33 23 -3 27 -8 27 -33z"/>
<path d="M11690 365 l0 -66 -60 63 -59 63 -1 -97 c0 -81 3 -98 15 -98 12 0 15
14 15 66 l0 67 60 -64 59 -64 1 98 c0 80 -3 97 -15 97 -12 0 -15 -14 -15 -65z"/>
<path d="M11760 330 l0 -100 55 0 c42 0 55 3 55 15 0 11 -11 15 -40 15 -36 0
-40 3 -40 25 0 22 4 25 35 25 24 0 35 5 35 15 0 10 -11 15 -35 15 -32 0 -35 2
-35 30 0 28 2 30 40 30 29 0 40 4 40 15 0 12 -13 15 -55 15 l-55 0 0 -100z"/>
<path d="M11910 355 c0 -67 3 -79 25 -100 31 -32 59 -32 90 0 22 21 25 33 25
100 0 59 -3 75 -15 75 -11 0 -15 -17 -17 -76 -2 -60 -7 -79 -20 -88 -13 -8
-23 -8 -35 0 -14 9 -19 28 -21 88 -2 59 -6 76 -17 76 -12 0 -15 -16 -15 -75z"/>
<path d="M12110 410 c-34 -34 -27 -52 38 -91 21 -12 32 -26 30 -37 -4 -21 -44
-28 -64 -11 -10 8 -18 9 -25 2 -14 -14 26 -43 58 -43 23 0 63 32 63 49 0 25
-16 44 -51 62 -41 20 -51 45 -23 56 9 3 25 1 35 -5 25 -16 38 7 14 25 -26 19
-52 16 -75 -7z"/>
<path d="M12310 330 l0 -100 55 0 c42 0 55 3 55 15 0 11 -11 15 -40 15 -36 0
-40 3 -40 25 0 22 4 25 35 25 24 0 35 5 35 15 0 10 -11 15 -35 15 -32 0 -35 2
-35 30 0 28 2 30 40 30 29 0 40 4 40 15 0 12 -13 15 -55 15 l-55 0 0 -100z"/>
<path d="M12470 410 c-34 -34 -22 -59 48 -94 21 -11 32 -23 30 -34 -4 -21 -53
-28 -74 -11 -11 9 -18 9 -25 2 -19 -19 35 -46 76 -39 70 14 70 74 -1 109 -28
13 -44 27 -42 37 4 19 44 26 63 10 10 -8 15 -8 21 1 9 15 -23 39 -53 39 -13 0
-32 -9 -43 -20z"/>
<path d="M4510 403 c-1 -23 54 -182 60 -176 4 4 16 30 26 57 l18 49 27 -59 26
-59 28 90 c15 50 30 94 32 98 3 5 -3 7 -12 5 -12 -2 -23 -20 -33 -55 -8 -29
-18 -53 -23 -53 -4 0 -13 17 -19 38 -19 57 -26 58 -46 3 -9 -27 -21 -48 -24
-46 -4 2 -13 29 -20 60 -8 33 -19 55 -27 55 -7 0 -13 -3 -13 -7z"/>
<path d="M4743 403 c2 -4 17 -48 32 -98 l28 -90 26 59 27 59 18 -49 c10 -27
22 -53 26 -57 6 -6 61 153 60 176 0 4 -6 7 -13 7 -8 0 -19 -22 -27 -55 -7 -31
-16 -58 -20 -60 -3 -2 -15 19 -24 46 -20 55 -27 54 -46 -3 -6 -21 -15 -38 -19
-38 -5 0 -15 24 -23 53 -10 35 -21 53 -33 55 -9 2 -15 0 -12 -5z"/>
<path d="M4973 403 c2 -4 17 -48 32 -98 l28 -90 26 59 27 59 18 -49 c10 -27
22 -53 26 -57 6 -6 61 153 60 176 0 4 -6 7 -13 7 -8 0 -19 -22 -27 -55 -7 -31
-16 -58 -20 -60 -3 -2 -15 19 -24 46 -20 55 -27 54 -46 -3 -6 -21 -15 -38 -19
-38 -5 0 -15 24 -23 53 -10 35 -21 53 -33 55 -9 2 -15 0 -12 -5z"/>
<path d="M5230 395 c0 -9 9 -15 25 -15 25 0 25 -1 25 -85 0 -69 3 -85 15 -85
12 0 15 16 15 85 0 84 0 85 25 85 16 0 25 6 25 15 0 12 -14 15 -65 15 -51 0
-65 -3 -65 -15z"/>
<path d="M5394 376 c-44 -44 -45 -83 -5 -128 24 -27 36 -33 71 -33 35 0 47 6
72 34 25 28 29 39 24 70 -7 46 -55 91 -97 91 -22 0 -41 -10 -65 -34z m116 -16
c27 -27 26 -74 -2 -100 -45 -42 -118 -12 -118 50 0 38 32 70 70 70 17 0 39 -9
50 -20z"/>
<path d="M5590 310 c0 -82 3 -100 15 -100 11 0 15 11 15 40 0 22 4 40 10 40 5
0 22 -18 36 -40 15 -22 33 -40 40 -40 20 0 17 11 -9 44 -23 28 -23 30 -5 48
24 24 23 49 -3 82 -16 20 -29 26 -60 26 l-39 0 0 -100z m85 35 c0 -25 -4 -30
-27 -33 -26 -3 -28 -1 -28 33 0 34 2 36 28 33 23 -3 27 -8 27 -33z"/>
<path d="M5750 313 c0 -85 3 -103 15 -103 12 0 15 14 15 67 l0 67 65 -64 65
-64 0 97 c0 80 -3 97 -15 97 -12 0 -15 -14 -15 -67 l-1 -68 -64 70 -64 70 -1
-102z"/>
<path d="M5940 310 l0 -100 55 0 c42 0 55 3 55 15 0 11 -11 15 -40 15 -36 0
-40 3 -40 25 0 22 4 25 35 25 24 0 35 5 35 15 0 10 -11 15 -35 15 -32 0 -35 2
-35 30 0 28 2 30 40 30 29 0 40 4 40 15 0 12 -13 15 -55 15 l-55 0 0 -100z"/>
<path d="M6090 335 c0 -67 3 -79 25 -100 13 -14 36 -25 50 -25 14 0 37 11 50
25 22 21 25 33 25 100 0 60 -3 75 -15 75 -12 0 -15 -15 -15 -73 0 -77 -9 -97
-45 -97 -36 0 -45 20 -45 97 0 58 -3 73 -15 73 -12 0 -15 -15 -15 -75z"/>
<path d="M6290 390 c-34 -34 -22 -59 48 -94 21 -11 32 -23 30 -34 -4 -21 -53
-28 -74 -11 -11 9 -18 9 -25 2 -19 -19 35 -46 76 -39 70 14 70 74 -1 109 -28
13 -44 27 -42 37 4 19 44 26 63 10 10 -8 15 -8 21 1 9 15 -23 39 -53 39 -13 0
-32 -9 -43 -20z"/>
<path d="M6490 310 l0 -100 55 0 c42 0 55 3 55 15 0 11 -11 15 -40 15 -36 0
-40 3 -40 25 0 22 4 25 35 25 24 0 35 5 35 15 0 10 -11 15 -35 15 -32 0 -35 2
-35 30 0 28 2 30 40 30 29 0 40 4 40 15 0 12 -13 15 -55 15 l-55 0 0 -100z"/>
<path d="M6660 390 c-34 -34 -27 -52 38 -91 21 -12 32 -26 30 -37 -4 -21 -44
-28 -64 -11 -10 8 -18 9 -25 2 -14 -14 26 -43 58 -43 23 0 63 32 63 49 0 25
-16 44 -51 62 -41 20 -51 45 -23 56 9 3 25 1 35 -5 25 -16 38 7 14 25 -26 19
-52 16 -75 -7z"/>
<path d="M1460 375 c0 -18 -5 -25 -20 -25 -11 0 -20 -7 -20 -15 0 -8 9 -15 20
-15 15 0 20 -7 20 -25 0 -16 6 -25 15 -25 9 0 15 9 15 25 0 18 5 25 20 25 11
0 20 7 20 15 0 8 -9 15 -20 15 -15 0 -20 7 -20 25 0 16 -6 25 -15 25 -9 0 -15
-9 -15 -25z"/>
<path d="M7780 315 c0 -69 3 -85 15 -85 12 0 15 16 15 85 0 69 -3 85 -15 85
-12 0 -15 -16 -15 -85z"/>
<path d="M7840 317 c0 -71 3 -87 15 -87 11 0 15 13 15 53 l1 52 49 -55 49 -55
1 88 c0 67 -3 88 -12 85 -7 -3 -15 -27 -18 -53 l-5 -49 -47 54 -48 55 0 -88z"/>
<path d="M8000 315 c0 -69 3 -85 15 -85 10 0 15 11 15 35 0 32 2 35 30 35 20
0 30 5 30 15 0 10 -10 15 -30 15 -23 0 -30 4 -30 20 0 16 7 20 35 20 24 0 35
5 35 15 0 11 -12 15 -50 15 l-50 0 0 -85z"/>
<path d="M8153 390 c-50 -21 -60 -105 -17 -139 57 -45 134 -11 134 59 0 21 -8
47 -17 59 -21 24 -68 35 -100 21z m77 -40 c24 -24 25 -38 4 -68 -29 -42 -104
-17 -104 35 0 20 38 53 60 53 11 0 29 -9 40 -20z"/>
<path d="M8348 384 c-59 -32 -77 -125 -33 -169 28 -28 105 -36 105 -11 0 9 -8
12 -25 8 -14 -2 -36 3 -50 12 -20 13 -25 25 -25 57 0 55 34 89 89 89 52 0 79
-34 65 -82 -15 -50 -34 -47 -34 5 0 42 -1 44 -29 45 -58 1 -87 -79 -31 -86 14
-2 35 -8 47 -14 30 -15 51 -4 68 34 37 91 -56 162 -147 112z m65 -100 c-6 -16
-29 -19 -38 -4 -4 6 -1 17 5 26 15 18 42 0 33 -22z"/>
<path d="M8520 385 c0 -8 9 -15 20 -15 18 0 20 -7 20 -70 0 -56 3 -70 15 -70
12 0 15 14 15 70 0 63 2 70 20 70 11 0 20 7 20 15 0 12 -13 15 -55 15 -42 0
-55 -3 -55 -15z"/>
<path d="M8659 371 c-36 -36 -37 -70 -3 -110 19 -23 34 -31 59 -31 42 0 85 41
85 82 0 38 -48 88 -85 88 -16 0 -38 -12 -56 -29z m95 -17 c34 -34 9 -94 -39
-94 -49 0 -72 55 -38 92 20 22 56 23 77 2z"/>
<path d="M8820 315 c0 -69 3 -85 15 -85 10 0 15 10 15 30 0 17 4 30 9 30 5 0
19 -13 31 -30 12 -16 28 -30 36 -30 19 0 18 7 -6 37 -19 24 -19 27 -4 44 35
39 -5 89 -72 89 -24 0 -24 -2 -24 -85z m75 30 c0 -13 -8 -21 -22 -23 -19 -3
-23 1 -23 23 0 22 4 26 23 23 14 -2 22 -10 22 -23z"/>
<path d="M9060 348 l0 -52 -50 49 -50 49 0 -82 c0 -66 3 -82 15 -82 11 0 15
12 15 51 l0 50 50 -53 49 -53 1 88 c0 71 -3 87 -15 87 -11 0 -15 -12 -15 -52z"/>
<path d="M9120 315 l0 -85 50 0 c38 0 50 4 50 15 0 10 -11 15 -35 15 -28 0
-35 4 -35 20 0 16 7 20 30 20 20 0 30 5 30 15 0 10 -10 15 -30 15 -23 0 -30 4
-30 20 0 16 7 20 35 20 24 0 35 5 35 15 0 11 -12 15 -50 15 l-50 0 0 -85z"/>
<path d="M9240 337 c0 -75 18 -107 59 -107 45 0 61 27 61 103 0 77 -19 93 -21
17 -2 -71 -2 -72 -20 -83 -35 -22 -49 -2 -49 68 0 51 -3 65 -15 65 -12 0 -15
-14 -15 -63z"/>
<path d="M9406 384 c-28 -27 -19 -52 25 -74 48 -25 46 -45 -5 -44 -23 1 -36
-3 -36 -11 0 -30 69 -34 94 -6 24 27 12 58 -30 78 -47 23 -46 47 1 39 38 -8
48 7 16 24 -27 14 -47 13 -65 -6z"/>
<path d="M9577 393 c-4 -3 -7 -42 -7 -85 l0 -78 50 0 c38 0 50 4 50 15 0 10
-11 15 -35 15 -28 0 -35 4 -35 20 0 16 7 20 30 20 20 0 30 5 30 15 0 10 -10
15 -30 15 -23 0 -30 4 -30 20 0 16 7 20 35 20 24 0 35 5 35 15 0 11 -11 15
-43 15 -24 0 -47 -3 -50 -7z"/>
<path d="M9718 389 c-32 -18 -22 -56 22 -84 49 -31 44 -50 -11 -41 -22 3 -39
3 -39 -2 0 -29 74 -44 98 -20 24 24 13 57 -28 83 -45 28 -44 50 1 41 21 -4 29
-2 29 8 0 24 -42 33 -72 15z"/>
<path d="M9517 254 c-9 -10 2 -24 19 -24 8 0 14 7 14 15 0 15 -21 21 -33 9z"/>
<path d="M12234 249 c-10 -17 13 -36 27 -22 12 12 4 33 -11 33 -5 0 -12 -5
-16 -11z"/>
<path d="M5184 229 c-10 -17 13 -36 27 -22 12 12 4 33 -11 33 -5 0 -12 -5 -16
-11z"/>
<path d="M6424 229 c-10 -17 13 -36 27 -22 12 12 4 33 -11 33 -5 0 -12 -5 -16
-11z"/>
</g>
</svg>
